<svg id="Ebene_1" data-name="Ebene 1" xmlns="http://www.w3.org/2000/svg" xmlns:xlink="http://www.w3.org/1999/xlink" width="58.49" height="49.49" viewBox="0 0 58.49 49.49"><defs><style>.cls-1{fill:url(#Unbenannter_Verlauf_220);}.cls-2{fill:url(#Unbenannter_Verlauf_231);}.cls-3{mask:url(#mask);}.cls-4{fill:url(#Verlauf);}.cls-5{fill:url(#Unbenannter_Verlauf_3);}.cls-6{filter:url(#luminosity-invert);}</style><linearGradient id="Unbenannter_Verlauf_220" y1="24.75" x2="58.09" y2="24.75" gradientUnits="userSpaceOnUse"><stop offset="0.68" stop-color="#030203"/><stop offset="0.85" stop-color="#030203" stop-opacity="0.5"/><stop offset="0.96" stop-color="#030203" stop-opacity="0"/></linearGradient><linearGradient id="Unbenannter_Verlauf_231" y1="24.75" x2="58.09" y2="24.75" gradientUnits="userSpaceOnUse"><stop offset="0.63" stop-color="#030203"/><stop offset="0.76" stop-color="#030203" stop-opacity="0.5"/><stop offset="0.96" stop-color="#030203" stop-opacity="0"/></linearGradient><filter id="luminosity-invert" filterUnits="userSpaceOnUse" color-interpolation-filters="sRGB"><feColorMatrix values="-1 0 0 0 1 0 -1 0 0 1 0 0 -1 0 1 0 0 0 1 0"/></filter><mask id="mask" x="0" y="0" width="58.49" height="49.49" maskUnits="userSpaceOnUse"><g class="cls-6"><path class="cls-1" d="M55.06,28.07v0H38.72L35.85,21.9l-.12-.26L26.59,2A3.53,3.53,0,0,0,24.13.09h0A3.07,3.07,0,0,0,23.6,0l-.25,0-.26,0a3.07,3.07,0,0,0-.53.07h0A3.55,3.55,0,0,0,20.1,2L.28,44.56h0a3.53,3.53,0,0,0,6.4,3h0l5.81-12.47a3.93,3.93,0,0,0,.59.06H34.21L35.53,38l.23.51L40,47.55h0a3.54,3.54,0,0,0,6.41-3h0l-2.84-6.08L42,35.14h13a3.53,3.53,0,0,0,0-7.06Z"/><path class="cls-2" d="M55.06,28.07v0H38.72L35.85,21.9l-.12-.26L26.59,2A3.53,3.53,0,0,0,24.13.09h0A3.07,3.07,0,0,0,23.6,0l-.25,0-.26,0a3.07,3.07,0,0,0-.53.07h0A3.55,3.55,0,0,0,20.1,2L.28,44.56h0a3.53,3.53,0,0,0,6.4,3h0l5.81-12.47a3.93,3.93,0,0,0,.59.06H34.21L35.53,38l.23.51L40,47.55h0a3.54,3.54,0,0,0,6.41-3h0l-2.84-6.08L42,35.14h13a3.53,3.53,0,0,0,0-7.06Z"/></g></mask><linearGradient id="Verlauf" x1="29.24" x2="29.24" y2="49.49" gradientUnits="userSpaceOnUse"><stop offset="0" stop-color="#8cb918"/><stop offset="0.33" stop-color="#00c7c7"/><stop offset="0.55" stop-color="#0ab4d9"/><stop offset="0.67" stop-color="#10a8e5"/><stop offset="1" stop-color="#134094"/></linearGradient><linearGradient id="Unbenannter_Verlauf_3" x1="22.57" y1="31.6" x2="34.21" y2="31.6" gradientUnits="userSpaceOnUse"><stop offset="0.05" stop-color="#1a2542" stop-opacity="0"/><stop offset="0.42" stop-color="#1a2542" stop-opacity="0.23"/><stop offset="1" stop-color="#1a2542" stop-opacity="0.7"/></linearGradient></defs><g class="cls-3"><path class="cls-4" d="M55.06,28.07v0H38.72L35.85,21.9l-.12-.26L26.59,2A3.53,3.53,0,0,0,24.13.09h0A3.07,3.07,0,0,0,23.6,0l-.25,0-.26,0a3.07,3.07,0,0,0-.53.07h0A3.55,3.55,0,0,0,20.1,2L.28,44.56h0a3.53,3.53,0,0,0,6.4,3h0l5.81-12.47a3.93,3.93,0,0,0,.59.06H34.21L35.53,38l.23.51L40,47.55h0a3.54,3.54,0,0,0,6.41-3h0l-2.84-6.08L42,35.14h13a3.53,3.53,0,0,0,0-7.06Zm-39.27,0,7.56-16.2L28.7,23.33l2.2,4.72Z"/><polygon class="cls-5" points="30.9 28.05 34.21 35.14 22.57 35.14 22.57 28.05 30.9 28.05"/></g></svg>